<?xml version="1.0" encoding="UTF-8"?>
<svg xmlns="http://www.w3.org/2000/svg" xmlns:xlink="http://www.w3.org/1999/xlink" width="118px" height="32px" viewBox="0 0 118 32" version="1.1">
<g id="surface1">
<path style=" stroke:none;fill-rule:nonzero;fill:rgb(7.058824%,6.666667%,6.27451%);fill-opacity:1;" d="M 22.730469 13.695312 L 12.816406 13.695312 C 12.5625 13.695312 12.355469 13.90625 12.355469 14.160156 L 12.355469 19.023438 C 12.355469 19.28125 12.5625 19.488281 12.816406 19.488281 L 16.683594 19.488281 L 16.683594 25.527344 C 16.683594 25.527344 15.816406 25.824219 13.414062 25.824219 C 10.582031 25.824219 6.625 24.785156 6.625 16.058594 C 6.625 7.332031 10.746094 6.183594 14.613281 6.183594 C 17.964844 6.183594 19.40625 6.773438 20.324219 7.058594 C 20.613281 7.148438 20.878906 6.859375 20.878906 6.601562 L 21.984375 1.90625 C 21.984375 1.785156 21.945312 1.640625 21.808594 1.542969 C 21.433594 1.277344 19.160156 0 13.414062 0 C 6.796875 0 0.0078125 2.824219 0.0078125 16.398438 C 0.0078125 29.976562 7.78125 32 14.332031 32 C 19.753906 32 23.042969 29.675781 23.042969 29.675781 C 23.179688 29.601562 23.195312 29.410156 23.195312 29.324219 L 23.195312 14.160156 C 23.195312 13.90625 22.988281 13.695312 22.730469 13.695312 M 73.828125 1.625 C 73.828125 1.503906 73.78125 1.386719 73.695312 1.296875 C 73.609375 1.210938 73.492188 1.160156 73.367188 1.160156 L 67.785156 1.160156 C 67.527344 1.160156 67.320312 1.371094 67.324219 1.625 L 67.324219 12.445312 L 58.621094 12.445312 L 58.621094 1.625 C 58.625 1.503906 58.574219 1.386719 58.488281 1.296875 C 58.402344 1.210938 58.285156 1.160156 58.160156 1.160156 L 52.578125 1.160156 C 52.324219 1.160156 52.117188 1.371094 52.117188 1.625 L 52.117188 30.921875 C 52.117188 31.183594 52.324219 31.390625 52.578125 31.390625 L 58.160156 31.390625 C 58.417969 31.390625 58.621094 31.179688 58.621094 30.921875 L 58.621094 18.390625 L 67.324219 18.390625 L 67.308594 30.921875 C 67.308594 31.183594 67.515625 31.390625 67.769531 31.390625 L 73.367188 31.390625 C 73.621094 31.390625 73.828125 31.179688 73.828125 30.921875 L 73.828125 1.625 M 33.265625 5.472656 C 33.265625 3.457031 31.65625 1.824219 29.667969 1.824219 C 27.679688 1.824219 26.066406 3.457031 26.066406 5.472656 C 26.066406 7.484375 27.679688 9.117188 29.667969 9.117188 C 31.65625 9.117188 33.265625 7.484375 33.265625 5.472656 M 32.867188 24.742188 L 32.867188 11.21875 C 32.867188 10.964844 32.660156 10.753906 32.40625 10.753906 L 26.839844 10.753906 C 26.585938 10.753906 26.355469 11.015625 26.355469 11.273438 L 26.355469 30.648438 C 26.355469 31.21875 26.710938 31.386719 27.167969 31.386719 L 32.183594 31.386719 C 32.730469 31.386719 32.867188 31.117188 32.867188 30.640625 L 32.867188 24.742188 M 95.042969 10.796875 L 89.503906 10.796875 C 89.25 10.796875 89.042969 11.007812 89.042969 11.265625 L 89.042969 25.628906 C 89.042969 25.628906 87.636719 26.664062 85.636719 26.664062 C 83.640625 26.664062 83.109375 25.753906 83.109375 23.792969 L 83.109375 11.265625 C 83.109375 11.007812 82.902344 10.796875 82.648438 10.796875 L 77.027344 10.796875 C 76.773438 10.796875 76.566406 11.007812 76.566406 11.265625 L 76.566406 24.742188 C 76.566406 30.566406 79.804688 31.992188 84.257812 31.992188 C 87.910156 31.992188 90.859375 29.96875 90.859375 29.96875 C 90.859375 29.96875 90.996094 31.035156 91.0625 31.160156 C 91.125 31.289062 91.289062 31.414062 91.46875 31.414062 L 95.046875 31.398438 C 95.300781 31.398438 95.507812 31.1875 95.507812 30.933594 L 95.503906 11.265625 C 95.503906 11.007812 95.296875 10.796875 95.042969 10.796875 M 108 26.644531 C 106.078125 26.585938 104.773438 25.710938 104.773438 25.710938 L 104.773438 16.433594 C 104.773438 16.433594 106.058594 15.644531 107.636719 15.503906 C 109.632812 15.324219 111.554688 15.929688 111.554688 20.699219 C 111.554688 25.734375 110.6875 26.726562 108 26.644531 Z M 110.183594 10.140625 C 107.039062 10.140625 104.898438 11.546875 104.898438 11.546875 L 104.898438 1.625 C 104.898438 1.367188 104.691406 1.160156 104.4375 1.160156 L 98.839844 1.160156 C 98.582031 1.160156 98.375 1.371094 98.378906 1.625 L 98.378906 30.921875 C 98.378906 31.183594 98.585938 31.390625 98.839844 31.390625 L 102.722656 31.390625 C 102.898438 31.390625 103.03125 31.300781 103.128906 31.144531 C 103.226562 30.984375 103.363281 29.792969 103.363281 29.792969 C 103.363281 29.792969 105.652344 31.96875 109.988281 31.96875 C 115.074219 31.96875 117.992188 29.378906 117.992188 20.351562 C 117.992188 11.320312 113.332031 10.140625 110.183594 10.140625 M 48.910156 10.75 L 44.722656 10.75 L 44.71875 5.203125 C 44.71875 4.992188 44.609375 4.886719 44.367188 4.886719 L 38.660156 4.886719 C 38.4375 4.886719 38.320312 4.984375 38.320312 5.199219 L 38.320312 10.933594 C 38.320312 10.933594 35.460938 11.625 35.265625 11.679688 C 35.070312 11.738281 34.933594 11.921875 34.933594 12.128906 L 34.933594 15.730469 C 34.933594 15.988281 35.140625 16.199219 35.394531 16.199219 L 38.320312 16.199219 L 38.320312 24.867188 C 38.320312 31.304688 42.824219 31.9375 45.863281 31.9375 C 47.25 31.9375 48.910156 31.488281 49.183594 31.386719 C 49.351562 31.328125 49.445312 31.152344 49.445312 30.96875 L 49.453125 27.003906 C 49.453125 26.746094 49.234375 26.535156 48.988281 26.535156 C 48.746094 26.535156 48.121094 26.636719 47.476562 26.636719 C 45.421875 26.636719 44.722656 25.675781 44.722656 24.433594 L 44.722656 16.199219 L 48.910156 16.199219 C 49.167969 16.199219 49.375 15.988281 49.375 15.730469 L 49.375 11.21875 C 49.375 11.09375 49.324219 10.976562 49.238281 10.886719 C 49.152344 10.800781 49.035156 10.75 48.910156 10.75 "/>
</g>
</svg>
