<?xml version="1.0" encoding="UTF-8"?>
<svg xmlns="http://www.w3.org/2000/svg" xmlns:xlink="http://www.w3.org/1999/xlink" width="32px" height="32px" viewBox="0 0 32 31" version="1.1">
<g id="surface1">
<path style=" stroke:none;fill-rule:nonzero;fill:rgb(100%,100%,100%);fill-opacity:1;" d="M 2.40625 3.835938 L 28.914062 3.835938 L 28.914062 28.460938 L 2.40625 28.460938 Z M 2.40625 3.835938 "/>
<path style=" stroke:none;fill-rule:nonzero;fill:rgb(3.921569%,40.000001%,76.078433%);fill-opacity:1;" d="M 0.03125 2.222656 C 0.03125 0.996094 1.089844 0 2.390625 0 L 29.609375 0 C 30.910156 0 31.96875 0.996094 31.96875 2.222656 L 31.96875 28.78125 C 31.96875 30.007812 30.910156 31 29.609375 31 L 2.390625 31 C 1.089844 31 0.03125 30.007812 0.03125 28.78125 Z M 0.03125 2.222656 "/>
<path style=" stroke:none;fill-rule:nonzero;fill:rgb(100%,100%,100%);fill-opacity:1;" d="M 9.738281 25.941406 L 9.738281 11.988281 L 4.957031 11.988281 L 4.957031 25.941406 Z M 7.347656 10.082031 C 9.015625 10.082031 10.050781 9.011719 10.050781 7.671875 C 10.023438 6.300781 9.015625 5.257812 7.382812 5.257812 C 5.746094 5.257812 4.675781 6.300781 4.675781 7.671875 C 4.675781 9.011719 5.714844 10.082031 7.316406 10.082031 Z M 12.382812 25.941406 L 17.160156 25.941406 L 17.160156 18.148438 C 17.160156 17.730469 17.191406 17.316406 17.320312 17.019531 C 17.664062 16.183594 18.449219 15.320312 19.769531 15.320312 C 21.5 15.320312 22.191406 16.601562 22.191406 18.476562 L 22.191406 25.941406 L 26.96875 25.941406 L 26.96875 17.941406 C 26.96875 13.652344 24.613281 11.660156 21.46875 11.660156 C 18.890625 11.660156 17.757812 13.058594 17.128906 14.007812 L 17.160156 14.007812 L 17.160156 11.988281 L 12.382812 11.988281 C 12.445312 13.296875 12.382812 25.941406 12.382812 25.941406 Z M 12.382812 25.941406 "/>
</g>
</svg>
